<?xml version="1.0" standalone="no"?>
<!DOCTYPE svg PUBLIC "-//W3C//DTD SVG 20010904//EN"
 "http://www.w3.org/TR/2001/REC-SVG-20010904/DTD/svg10.dtd">
<svg version="1.0" xmlns="http://www.w3.org/2000/svg"
 width="917.000000pt" height="272.000000pt" viewBox="0 0 917.000000 272.000000"
 preserveAspectRatio="xMidYMid meet">

<g transform="translate(0.000000,272.000000) scale(0.100000,-0.100000)"
fill="#000000" stroke="none">
<path d="M298 2450 c-102 -39 -173 -104 -214 -197 -29 -65 -30 -83 -5 -83 13
0 20 10 25 33 10 48 69 132 119 166 72 49 124 66 202 65 160 -2 303 -125 330
-284 8 -47 -6 -53 -47 -20 -81 63 -234 82 -340 41 -152 -59 -238 -186 -238
-352 0 -106 59 -243 92 -211 10 10 10 16 0 30 -46 65 -63 147 -50 244 14 106
78 191 187 245 50 24 66 27 140 25 95 -3 179 -33 225 -81 l26 -27 -43 -49
c-85 -100 -143 -203 -186 -332 -33 -98 -66 -316 -57 -378 3 -22 11 -71 16
-110 57 -382 349 -709 730 -819 30 -8 105 -22 165 -30 96 -13 125 -13 225 -1
209 26 378 97 544 227 182 144 324 398 360 645 7 47 11 43 -72 57 -91 15 -255
-32 -402 -115 -156 -88 -181 -94 -372 -94 l-168 0 -82 81 c-148 146 -242 205
-403 258 -65 21 -99 26 -184 26 -109 0 -228 -25 -279 -58 -14 -9 -27 -11 -32
-6 -11 11 5 181 21 234 58 183 127 308 228 413 55 58 79 71 160 90 55 13 71
13 129 -1 255 -57 356 -352 185 -542 -28 -32 -43 -56 -39 -66 5 -13 9 -13 29
2 38 29 87 99 108 154 27 72 26 190 -3 267 -31 81 -121 172 -203 202 -75 29
-156 36 -215 21 -97 -25 -103 -25 -95 1 13 41 69 113 119 150 131 99 297 90
420 -22 68 -62 104 -134 108 -214 3 -54 5 -60 26 -63 19 -3 22 0 18 20 -3 13
-8 47 -11 77 -13 112 -96 220 -210 272 -56 25 -77 29 -154 29 -74 0 -100 -4
-145 -24 -69 -31 -117 -69 -157 -123 -31 -45 -49 -54 -49 -27 0 8 -11 39 -25
69 -37 77 -126 157 -206 184 -78 26 -184 27 -251 1z m641 -1086 c173 -35 293
-112 496 -318 210 -211 332 -298 486 -345 79 -25 205 -36 240 -23 15 6 32 7
40 2 11 -7 5 -18 -26 -50 -38 -40 -212 -161 -247 -173 -22 -8 -142 52 -228
112 -36 25 -141 120 -235 211 -93 92 -197 184 -230 206 -169 114 -344 158
-517 130 -52 -9 -108 -22 -124 -31 -16 -8 -34 -15 -41 -15 -19 0 -36 70 -37
153 l-1 79 50 21 c136 56 247 68 374 41z m1525 -179 c-3 -93 -97 -326 -164
-406 -81 -99 -294 -91 -501 17 -85 45 -248 174 -249 197 0 20 6 21 66 6 36 -9
65 -8 144 5 122 20 161 34 269 94 169 93 257 121 366 119 l70 -2 -1 -30z
m-1465 -125 c158 -53 250 -117 431 -300 154 -156 281 -258 368 -296 28 -13 52
-28 52 -33 0 -12 -41 -27 -125 -48 -94 -23 -373 -24 -460 -1 -331 85 -587 310
-704 620 -10 26 -8 27 37 43 26 10 56 21 67 26 59 25 245 19 334 -11z"/>
<path d="M2820 1966 l0 -316 112 0 c156 0 217 18 284 85 33 33 56 67 67 99 19
56 23 190 7 248 -18 62 -71 128 -130 162 -53 30 -59 31 -197 34 l-143 4 0
-316z m287 188 c48 -35 66 -87 66 -184 0 -150 -43 -206 -165 -217 l-58 -6 0
218 0 217 65 -4 c44 -3 74 -10 92 -24z"/>
<path d="M3470 1978 c-62 -167 -115 -309 -118 -316 -3 -10 11 -12 64 -10 l68
3 20 63 20 62 117 0 117 0 22 -65 22 -65 64 0 c45 0 64 4 63 13 0 6 -51 147
-113 312 l-113 300 -60 3 -60 3 -113 -303z m250 -90 c0 -9 -144 -11 -152 -2
-5 4 44 164 68 224 5 12 84 -196 84 -222z"/>
<path d="M4000 1965 l0 -315 200 0 200 0 0 50 0 50 -135 0 -135 0 0 265 0 265
-65 0 -65 0 0 -315z"/>
<path d="M1720 2229 l-25 -26 25 -25 26 -25 26 26 26 26 -27 25 -26 25 -25
-26z"/>
<path d="M1831 1999 c-86 -17 -181 -96 -222 -185 -37 -83 -45 -144 -26 -211
33 -120 96 -196 203 -245 70 -32 198 -32 268 0 75 34 129 84 167 154 32 59 34
69 34 158 0 100 -13 139 -71 216 -70 95 -214 141 -353 113z m192 -45 c51 -17
125 -78 156 -127 11 -18 26 -60 34 -95 13 -57 13 -70 -3 -133 -20 -82 -53
-128 -132 -182 -48 -34 -64 -39 -129 -44 -42 -3 -92 -1 -115 6 -63 17 -129 67
-171 129 -35 54 -38 62 -41 149 -4 80 -1 98 19 139 67 140 233 209 382 158z"/>
<path d="M931 1716 l-22 -24 25 -25 26 -26 25 25 26 26 -23 24 c-28 29 -29 29
-57 0z"/>
<path d="M2391 1444 l-23 -23 27 -24 28 -23 24 24 24 24 -22 24 c-27 28 -27
28 -58 -2z"/>
<path d="M5165 1163 c-47 -11 -62 -80 -23 -107 48 -34 108 -7 108 48 0 46 -36
70 -85 59z"/>
<path d="M2786 1098 c9 -24 53 -151 99 -283 46 -132 89 -255 95 -273 l12 -33
66 3 65 3 108 310 c60 171 108 311 109 313 0 1 -31 2 -70 2 l-69 0 -30 -97
c-16 -54 -47 -154 -67 -223 -20 -69 -40 -129 -45 -134 -7 -8 -38 83 -111 334
l-34 115 -72 3 -71 3 15 -43z"/>
<path d="M6590 825 l0 -315 60 0 60 0 0 135 0 135 130 0 130 0 0 -135 0 -136
63 3 62 3 3 313 2 312 -65 0 -65 0 0 -124 0 -125 -126 -3 c-69 -2 -128 -1
-130 1 -2 2 -4 60 -4 128 l0 123 -60 0 -60 0 0 -315z"/>
<path d="M4840 1035 l0 -55 -35 0 c-35 0 -35 0 -35 -45 0 -45 0 -45 35 -45
l35 0 0 -140 c0 -207 22 -244 142 -238 l63 3 3 43 c3 41 2 42 -27 42 -54 0
-61 17 -61 161 l0 129 40 0 40 0 0 45 0 45 -40 0 -40 0 0 55 0 55 -60 0 -60 0
0 -55z"/>
<path d="M3525 981 c-53 -14 -95 -41 -115 -74 -35 -56 -28 -67 40 -67 33 0 60
4 60 10 0 6 9 19 20 30 43 43 120 11 120 -49 0 -28 -1 -28 -75 -34 -126 -11
-195 -64 -195 -150 0 -86 59 -137 157 -137 45 0 67 5 86 20 31 25 33 25 40 0
4 -17 14 -20 67 -20 60 0 62 1 55 23 -4 12 -10 99 -14 194 -6 165 -7 172 -31
198 -14 15 -37 33 -52 41 -33 17 -123 26 -163 15z m125 -300 c0 -41 -4 -51
-25 -65 -50 -33 -125 -13 -125 34 0 49 42 79 113 80 l37 0 0 -49z"/>
<path d="M4000 979 c-91 -27 -142 -108 -144 -224 -1 -84 15 -134 57 -182 41
-47 82 -63 157 -63 98 0 170 50 186 129 l7 31 -55 0 c-49 0 -56 -3 -66 -25
-23 -51 -90 -58 -133 -16 -27 28 -29 34 -29 111 0 113 21 150 86 150 37 0 60
-15 74 -50 12 -28 16 -30 66 -30 47 0 54 3 54 19 0 50 -40 110 -92 137 -36 19
-125 26 -168 13z"/>
<path d="M4464 980 c-50 -11 -101 -48 -118 -84 -25 -52 -22 -56 44 -56 33 0
60 4 60 10 0 6 9 19 20 30 43 43 120 11 120 -49 0 -28 -1 -28 -70 -34 -82 -7
-152 -35 -175 -71 -44 -66 -22 -162 46 -198 49 -26 138 -25 174 3 22 18 29 20
36 8 5 -8 9 -17 9 -21 0 -5 26 -8 59 -8 l58 0 -3 68 c-2 37 -5 120 -7 184 -5
123 -13 150 -61 190 -40 32 -124 45 -192 28z m126 -299 c0 -59 -22 -81 -81
-81 -48 0 -73 27 -64 70 8 37 48 59 108 60 l37 0 0 -49z"/>
<path d="M5481 976 c-92 -30 -143 -112 -143 -230 0 -153 76 -236 217 -236 141
0 216 81 217 234 0 106 -39 183 -114 222 -40 21 -127 26 -177 10z m120 -96
c32 -17 49 -64 49 -134 0 -77 -14 -112 -51 -132 -35 -18 -53 -18 -88 0 -37 20
-51 55 -51 132 0 68 17 115 47 133 23 13 69 14 94 1z"/>
<path d="M6047 976 c-21 -8 -47 -22 -58 -32 -18 -16 -19 -16 -19 9 0 26 -2 27
-60 27 l-60 0 2 -232 3 -233 58 -3 57 -3 1 148 c0 81 2 159 3 172 6 53 85 79
134 45 21 -15 22 -21 22 -190 l0 -174 60 0 60 0 0 185 c0 201 -8 240 -52 269
-35 23 -106 29 -151 12z"/>
<path d="M7336 978 c-51 -14 -118 -81 -134 -134 -36 -121 0 -250 84 -304 41
-26 58 -30 115 -30 79 0 113 11 152 48 53 50 72 99 72 187 0 103 -29 166 -96
207 -51 32 -133 43 -193 26z m127 -109 c57 -44 61 -187 7 -241 -38 -37 -79
-37 -121 0 -27 24 -33 37 -37 85 -6 75 3 119 33 151 30 32 81 35 118 5z"/>
<path d="M7894 971 c-23 -10 -45 -25 -50 -32 -6 -10 -10 -7 -14 11 -5 23 -11
25 -63 28 l-57 3 0 -236 0 -235 60 0 60 0 0 169 0 170 26 20 c35 27 85 27 110
0 17 -19 19 -41 22 -191 l4 -169 56 3 57 3 5 173 c5 157 7 175 24 188 29 21
82 18 106 -6 18 -18 20 -33 20 -190 l0 -170 60 0 60 0 0 179 c0 103 -5 192
-11 208 -36 95 -165 121 -245 50 l-35 -30 -16 23 c-18 26 -71 50 -110 50 -15
0 -47 -9 -69 -19z"/>
<path d="M8611 975 c-94 -29 -140 -105 -141 -231 0 -99 25 -153 89 -199 40
-28 49 -30 135 -30 84 0 96 2 134 28 23 15 42 33 42 40 0 6 -12 25 -25 40
l-25 28 -28 -21 c-40 -30 -101 -36 -140 -16 -29 15 -62 60 -62 86 0 6 52 10
151 10 l152 0 -6 66 c-11 115 -56 179 -143 203 -50 14 -78 13 -133 -4z m114
-91 c18 -7 45 -54 45 -79 0 -12 -15 -15 -90 -15 -56 0 -90 4 -90 10 0 20 30
69 47 79 20 12 63 14 88 5z"/>
<path d="M5124 967 c-3 -8 -4 -113 -2 -233 l3 -219 60 0 60 0 3 233 2 232 -60
0 c-42 0 -62 -4 -66 -13z"/>
</g>
</svg>
