<?xml version="1.0" standalone="no"?>
<!DOCTYPE svg PUBLIC "-//W3C//DTD SVG 20010904//EN"
 "http://www.w3.org/TR/2001/REC-SVG-20010904/DTD/svg10.dtd">
<svg version="1.0" xmlns="http://www.w3.org/2000/svg"
 width="547.000000pt" height="487.000000pt" viewBox="0 0 547.000000 487.000000"
 preserveAspectRatio="xMidYMid meet">

<g transform="translate(0.000000,487.000000) scale(0.100000,-0.100000)"
fill="#000000" stroke="none">
<path d="M790 4713 c-30 -2 -69 -10 -87 -18 -17 -8 -41 -15 -52 -15 -12 0 -29
-4 -39 -10 -9 -5 -42 -21 -72 -35 -60 -27 -77 -37 -123 -75 -93 -75 -199 -198
-223 -260 -3 -8 -13 -31 -21 -50 -32 -71 -41 -96 -53 -138 -6 -24 -10 -45 -8
-47 2 -2 23 -5 48 -6 44 -4 45 -3 48 26 4 38 30 108 59 160 12 22 27 50 32 62
20 45 155 174 228 218 40 25 76 45 79 45 3 0 20 7 37 15 38 17 98 33 184 47
82 15 241 -9 308 -46 17 -9 35 -16 42 -16 31 0 147 -83 223 -160 80 -80 149
-187 150 -230 0 -8 7 -24 15 -34 8 -11 15 -34 15 -50 0 -17 7 -44 16 -61 18
-34 22 -81 7 -96 -12 -12 -56 10 -99 48 -17 15 -48 36 -70 47 -21 10 -51 25
-66 32 -14 8 -37 14 -50 14 -13 0 -29 5 -36 12 -29 29 -264 42 -377 20 -125
-24 -264 -88 -339 -155 -17 -16 -42 -36 -55 -45 -14 -9 -50 -50 -80 -92 -142
-191 -185 -367 -154 -632 4 -43 14 -83 21 -90 6 -6 12 -21 12 -32 0 -12 15
-50 33 -86 75 -144 82 -151 134 -112 l32 23 -45 61 c-24 33 -44 66 -44 73 0 7
-6 26 -14 42 -41 84 -56 202 -45 356 7 91 22 142 76 251 39 80 190 236 258
267 11 5 27 13 35 18 49 28 80 41 97 41 11 0 28 7 39 15 28 21 351 22 380 0
10 -8 31 -15 45 -15 15 0 32 -7 39 -15 7 -8 21 -15 31 -15 10 0 21 -5 24 -11
4 -5 17 -15 28 -20 35 -16 62 -33 79 -49 8 -8 32 -28 52 -45 40 -34 44 -47 19
-73 -10 -10 -27 -30 -38 -43 -11 -14 -42 -51 -70 -84 -27 -32 -54 -67 -60 -76
-17 -29 -93 -143 -104 -156 -6 -7 -11 -19 -11 -26 0 -8 -7 -20 -15 -27 -8 -7
-15 -18 -15 -26 0 -7 -6 -19 -12 -26 -14 -14 -37 -60 -63 -123 -9 -22 -23 -53
-31 -68 -8 -16 -14 -36 -14 -46 0 -9 -7 -26 -15 -37 -8 -10 -15 -27 -15 -37 0
-11 -6 -33 -14 -50 -18 -42 -35 -108 -47 -182 -5 -33 -13 -71 -18 -85 -5 -14
-12 -66 -15 -116 -3 -51 -10 -104 -16 -118 -13 -36 -13 -297 1 -333 6 -15 13
-66 16 -113 3 -47 11 -104 19 -128 8 -23 14 -60 14 -82 0 -21 4 -42 10 -45 5
-3 12 -28 16 -55 4 -27 13 -55 20 -61 8 -6 14 -26 14 -44 0 -18 7 -38 15 -45
8 -7 15 -22 15 -34 0 -11 7 -30 15 -40 8 -11 15 -30 15 -42 0 -12 7 -27 15
-34 8 -7 15 -20 15 -30 0 -10 7 -23 15 -30 8 -7 15 -20 15 -30 0 -10 7 -23 15
-30 8 -7 15 -21 15 -31 0 -11 4 -19 9 -19 5 0 13 -10 17 -22 3 -12 19 -39 35
-61 16 -22 29 -46 29 -54 0 -7 4 -13 9 -13 5 0 26 -26 46 -57 21 -32 43 -62
49 -68 6 -5 36 -39 66 -75 104 -123 282 -288 383 -354 31 -21 57 -42 57 -47 0
-5 7 -9 15 -9 8 0 34 -13 57 -30 22 -16 47 -30 55 -30 7 0 16 -7 19 -15 4 -8
14 -15 24 -15 10 0 23 -7 30 -15 7 -8 20 -15 30 -15 10 0 23 -7 30 -15 7 -8
20 -15 30 -15 10 0 23 -7 30 -15 7 -8 25 -15 40 -15 15 0 33 -7 40 -15 7 -8
23 -15 35 -15 12 0 28 -7 35 -15 7 -8 24 -15 39 -15 14 -1 37 -7 51 -15 14 -8
39 -14 55 -15 17 0 43 -7 59 -15 15 -8 46 -15 67 -15 21 0 56 -6 76 -14 21 -8
74 -17 118 -20 44 -3 96 -11 115 -16 46 -13 301 -13 336 0 14 6 67 13 117 17
50 3 103 12 117 20 14 7 48 13 75 13 28 0 59 7 69 15 11 8 36 15 55 15 20 0
45 7 55 15 11 8 31 15 45 15 14 0 35 7 45 15 11 8 30 15 42 15 12 0 27 7 34
15 7 8 23 15 35 15 12 0 28 7 35 15 7 8 17 15 23 15 18 0 157 73 234 123 24
15 46 27 51 27 5 0 21 13 37 30 16 16 33 30 38 30 10 0 140 100 145 112 2 5 8
8 13 8 12 0 174 161 209 208 14 18 33 43 44 55 26 31 129 168 143 192 7 11 17
29 23 40 6 11 19 34 30 50 10 17 42 77 70 135 28 58 58 118 66 133 8 16 14 35
14 42 0 7 6 26 14 42 20 41 37 92 46 138 11 59 30 136 42 170 6 17 14 62 18
100 4 39 11 84 15 100 6 28 4 32 -32 47 -99 44 -441 26 -573 -29 -46 -19 -95
-35 -122 -40 -15 -3 -33 -11 -39 -19 -6 -8 -22 -14 -34 -14 -12 0 -28 -7 -35
-15 -7 -8 -21 -15 -31 -15 -10 0 -21 -5 -24 -11 -4 -5 -17 -14 -28 -20 -12 -5
-30 -13 -39 -19 -10 -5 -26 -15 -35 -20 -10 -6 -27 -15 -38 -20 -11 -6 -33
-19 -50 -30 -16 -11 -40 -24 -52 -29 -11 -5 -24 -15 -28 -20 -3 -6 -14 -11
-24 -11 -10 0 -24 -6 -30 -14 -6 -8 -24 -16 -39 -19 -33 -6 -88 -25 -125 -43
-16 -8 -40 -14 -53 -14 -14 0 -41 -7 -62 -16 -56 -24 -568 -25 -603 0 -13 9
-40 16 -60 16 -33 0 -43 7 -100 72 -85 96 -131 141 -259 248 -35 30 -76 65
-90 78 -13 12 -28 22 -31 22 -5 0 -22 13 -66 50 -7 5 -14 10 -17 10 -3 0 -24
13 -48 29 -60 40 -235 131 -253 131 -8 0 -15 5 -15 10 0 6 -10 10 -22 10 -13
0 -36 7 -52 15 -15 8 -36 15 -45 15 -9 0 -28 6 -43 14 -14 8 -46 17 -70 21
-24 4 -47 11 -53 15 -23 17 -80 21 -285 21 -164 0 -228 -4 -261 -15 -24 -8
-62 -18 -83 -22 -22 -4 -51 -13 -65 -20 -14 -8 -34 -14 -44 -14 -9 0 -25 -4
-35 -9 -151 -76 -153 -77 -168 -56 -9 12 -12 28 -8 40 3 11 10 70 15 130 5 61
14 125 20 144 6 19 15 60 20 90 12 89 56 247 75 276 8 11 14 27 14 36 0 10 6
30 14 46 8 15 21 44 30 63 30 69 58 126 77 155 10 17 23 39 28 50 5 11 21 37
35 58 14 21 26 42 26 47 0 4 3 10 8 12 4 2 20 22 36 46 16 23 33 42 37 42 5 0
9 5 9 11 0 13 55 79 138 168 49 52 164 121 201 121 9 0 22 5 29 12 39 39 385
39 424 0 7 -7 20 -12 29 -12 23 0 159 -69 159 -81 0 -5 6 -9 13 -9 12 0 117
-105 167 -166 14 -17 33 -49 43 -70 10 -22 25 -52 33 -67 8 -16 14 -38 14 -50
1 -12 7 -33 15 -47 11 -19 14 -63 14 -170 0 -107 -3 -151 -14 -170 -8 -14 -14
-37 -15 -52 0 -15 -4 -29 -9 -32 -5 -3 -12 -18 -16 -33 -13 -55 -106 -178
-188 -250 -25 -23 -34 -38 -30 -50 9 -24 36 -53 48 -53 14 0 174 166 186 193
5 12 18 36 29 52 11 17 23 37 26 45 3 8 12 29 19 45 43 102 59 241 45 415 -7
89 -14 122 -45 195 -7 17 -16 37 -19 45 -3 8 -15 29 -26 45 -11 17 -23 37 -27
45 -8 17 -22 34 -93 112 -52 58 -189 158 -214 158 -7 0 -19 7 -26 15 -7 8 -22
15 -34 15 -11 1 -32 7 -46 15 -14 8 -41 14 -61 15 -20 0 -53 7 -72 15 -47 19
-188 19 -242 0 -22 -8 -54 -15 -70 -15 -17 0 -40 -7 -51 -15 -12 -8 -40 -19
-63 -24 -35 -8 -43 -6 -51 9 -7 13 -5 21 5 30 8 7 15 23 15 35 0 12 7 28 15
35 8 7 15 17 15 22 0 5 27 44 59 87 56 74 101 118 151 151 12 8 28 21 36 28 7
6 19 12 28 12 8 0 18 5 21 10 9 15 83 47 125 55 19 4 40 12 47 17 16 13 299 4
353 -11 130 -38 274 -138 367 -257 37 -47 103 -172 103 -194 0 -9 4 -20 9 -25
12 -13 32 -192 25 -225 -4 -17 1 -31 13 -41 24 -22 80 -32 85 -16 13 42 -23
297 -50 344 -6 12 -12 28 -12 36 0 8 -7 20 -15 27 -8 7 -15 19 -15 26 0 26
-65 120 -134 192 -65 68 -133 120 -201 154 -16 8 -45 22 -63 31 -19 9 -41 17
-51 17 -9 0 -28 8 -41 18 -22 15 -50 17 -215 17 -165 0 -193 -2 -215 -17 -13
-10 -36 -18 -51 -18 -15 0 -32 -7 -39 -15 -7 -8 -18 -15 -24 -15 -22 0 -86
-38 -161 -94 -65 -49 -94 -80 -170 -181 -8 -10 -15 -25 -15 -32 0 -16 -46 -47
-59 -39 -5 3 -11 23 -14 43 -2 21 -10 54 -17 73 -7 19 -15 40 -17 45 -2 6 -12
24 -23 40 -11 17 -23 37 -27 45 -22 50 -156 195 -219 238 -33 23 -55 35 -104
57 -30 14 -63 30 -72 35 -10 6 -28 10 -40 10 -13 0 -35 6 -49 14 -29 15 -205
26 -299 19z m1135 -2354 c28 -6 76 -13 107 -17 32 -4 63 -13 70 -20 7 -7 21
-12 31 -12 10 0 35 -7 55 -16 67 -29 107 -46 142 -62 54 -24 250 -142 295
-176 22 -17 45 -34 50 -38 65 -48 189 -163 284 -263 201 -211 472 -475 489
-475 4 0 22 -14 40 -31 18 -17 76 -59 130 -94 53 -36 102 -68 107 -72 31 -24
287 -143 309 -143 8 0 17 -4 20 -9 4 -5 25 -12 49 -16 23 -3 51 -10 62 -15 26
-11 188 -32 293 -37 62 -3 92 0 117 11 51 24 125 19 125 -8 0 -16 -145 -150
-235 -217 -38 -29 -73 -57 -76 -62 -7 -10 -46 -34 -71 -43 -10 -3 -18 -10 -18
-14 0 -4 -10 -12 -22 -19 -13 -6 -36 -20 -53 -31 -81 -52 -134 -71 -179 -65
-25 4 -51 13 -57 21 -6 8 -22 14 -35 14 -12 0 -26 4 -29 10 -3 5 -30 22 -58
36 -87 43 -112 57 -117 63 -3 3 -22 15 -44 26 -21 11 -40 26 -43 32 -3 7 -9
13 -14 13 -6 0 -24 10 -41 23 -30 20 -45 33 -107 86 -13 12 -29 21 -35 21 -6
0 -146 136 -311 303 -286 289 -364 363 -415 397 -13 8 -30 23 -39 33 -8 9 -21
17 -27 17 -7 0 -14 3 -16 8 -5 11 -129 96 -158 108 -8 3 -19 8 -25 10 -5 2
-18 8 -27 14 -35 20 -54 29 -98 50 -25 12 -58 28 -73 35 -16 8 -36 15 -46 15
-9 0 -26 7 -37 15 -10 8 -35 15 -55 15 -19 0 -44 7 -55 15 -10 8 -37 15 -59
15 -22 1 -58 7 -80 15 -58 21 -378 21 -428 0 -20 -8 -53 -15 -74 -15 -21 0
-47 -7 -57 -15 -11 -8 -34 -15 -51 -15 -17 0 -40 -7 -51 -15 -10 -8 -29 -15
-40 -15 -12 0 -27 -7 -34 -15 -7 -8 -22 -15 -34 -15 -18 0 -25 10 -39 55 -9
31 -17 72 -17 91 0 19 -6 50 -14 68 -8 19 -17 84 -21 145 -8 121 -2 141 41
141 13 0 24 4 24 9 0 5 13 12 30 16 16 4 32 11 35 16 4 5 14 9 23 9 10 0 34 9
55 20 20 11 45 20 55 20 10 0 23 5 29 11 6 6 37 15 69 19 33 5 77 13 99 18 54
13 318 13 380 1z m3303 -341 c17 -17 15 -78 -3 -121 -8 -20 -15 -51 -15 -69
-1 -18 -7 -44 -15 -58 -8 -14 -15 -38 -15 -55 0 -16 -7 -41 -15 -55 -8 -14
-14 -35 -15 -48 0 -12 -4 -30 -9 -40 -9 -15 -39 -83 -55 -122 -3 -8 -10 -22
-14 -30 -9 -14 -33 -68 -46 -100 -3 -8 -15 -28 -26 -45 -11 -16 -23 -37 -27
-45 -3 -8 -30 -52 -59 -97 -54 -83 -85 -113 -116 -113 -10 0 -18 -4 -18 -10 0
-5 -17 -12 -37 -15 -21 -4 -51 -13 -68 -20 -65 -28 -419 -25 -448 4 -6 6 -21
11 -32 11 -27 0 -157 39 -169 51 -6 5 -20 9 -32 9 -13 0 -25 4 -28 8 -3 5 -45
28 -93 53 -48 24 -89 47 -91 51 -2 5 -8 8 -14 8 -10 0 -138 82 -161 103 -7 7
-28 23 -48 37 -37 25 -73 55 -201 164 -105 89 -85 126 50 92 76 -20 185 -20
285 -1 43 8 97 15 120 15 23 1 53 7 67 15 14 8 41 15 60 15 19 0 46 7 60 15
14 8 37 14 51 15 15 0 32 7 39 15 7 8 18 15 25 15 13 0 127 57 180 91 17 10
39 23 50 29 11 6 34 19 50 30 29 19 34 22 65 34 8 3 22 10 30 15 26 16 145 71
154 71 4 0 22 6 39 14 54 24 134 46 169 47 18 0 49 7 68 14 46 18 291 20 308
3z m-3352 -273 c27 -8 72 -15 100 -15 28 0 59 -6 70 -15 10 -8 33 -15 50 -15
16 0 39 -7 50 -15 10 -8 28 -15 40 -15 11 0 29 -7 40 -15 10 -8 29 -15 40 -15
12 0 27 -7 34 -15 7 -8 23 -15 35 -15 13 0 25 -7 29 -15 3 -8 14 -15 24 -15
11 0 25 -7 32 -15 7 -8 18 -15 25 -15 6 0 31 -13 53 -30 23 -16 44 -30 48 -30
6 0 165 -118 179 -134 6 -6 32 -29 60 -51 64 -51 160 -147 255 -255 112 -126
204 -217 310 -305 52 -44 100 -85 105 -91 22 -25 178 -134 191 -134 8 0 14 -5
14 -10 0 -6 10 -15 23 -21 33 -15 67 -35 80 -48 6 -6 19 -11 28 -11 9 0 22 -7
29 -15 7 -8 22 -15 34 -15 12 0 37 -13 56 -29 l35 -29 -30 -11 c-16 -6 -38
-16 -47 -21 -10 -6 -30 -10 -45 -10 -16 -1 -39 -7 -53 -15 -14 -8 -41 -15 -60
-15 -19 0 -44 -7 -54 -15 -11 -8 -38 -15 -60 -15 -23 0 -54 -7 -71 -16 -26
-15 -73 -17 -355 -17 -278 1 -330 3 -362 17 -21 9 -54 16 -75 16 -21 0 -47 7
-57 15 -11 8 -36 15 -55 15 -20 0 -45 7 -55 15 -11 8 -34 15 -50 15 -17 0 -40
7 -50 15 -11 8 -30 15 -42 15 -12 0 -27 7 -34 15 -7 8 -23 15 -35 15 -12 0
-28 7 -35 15 -7 8 -17 15 -23 15 -10 0 -132 59 -171 83 -11 7 -49 31 -84 55
-35 23 -66 42 -70 42 -4 0 -33 23 -65 50 -32 27 -77 63 -100 80 -50 36 -178
165 -233 235 -21 28 -44 55 -50 60 -22 20 -74 93 -74 103 0 6 -6 15 -14 19
-12 7 -47 62 -76 118 -6 11 -19 34 -29 50 -24 37 -52 95 -76 155 -9 25 -21 52
-26 60 -5 8 -12 22 -15 30 -3 8 -13 31 -21 52 -17 40 -12 58 16 58 10 0 24 7
31 15 7 8 25 15 39 15 15 0 36 7 47 15 10 8 31 15 45 15 14 0 34 7 45 15 10 8
42 15 69 15 28 1 75 7 105 15 75 18 225 19 286 0z"/>
<path d="M3700 4261 c0 -20 -59 -91 -75 -91 -8 0 -19 -9 -25 -19 -14 -26 -13
-31 5 -31 19 0 95 -78 95 -97 0 -7 5 -13 10 -13 6 0 10 6 10 13 0 19 76 97 95
97 31 0 17 23 -46 75 -13 12 -34 34 -46 50 -12 17 -23 24 -23 16z"/>
<path d="M4014 3731 c-11 -5 -51 -12 -87 -16 -37 -4 -70 -11 -73 -16 -3 -5
-14 -9 -25 -9 -20 0 -141 -61 -164 -83 -7 -7 -23 -19 -36 -27 -33 -21 -100
-88 -136 -135 -27 -35 -65 -105 -109 -200 -50 -108 -49 -385 1 -481 8 -16 15
-35 15 -42 0 -7 7 -20 15 -28 8 -9 15 -24 15 -35 0 -10 4 -19 9 -19 5 0 13
-12 19 -27 12 -36 128 -161 184 -199 24 -16 45 -31 48 -34 3 -3 23 -13 45 -23
22 -10 53 -25 68 -33 16 -8 34 -14 40 -14 7 0 26 -8 42 -17 24 -13 62 -16 191
-17 104 -1 166 3 175 10 8 6 28 14 44 18 27 6 75 26 115 47 72 38 94 52 122
76 36 31 117 112 133 134 29 38 85 138 85 151 0 8 5 19 11 25 14 14 27 71 41
176 14 107 -12 321 -43 352 -5 5 -9 17 -9 27 0 11 -8 31 -19 46 -10 15 -35 52
-55 83 -47 73 -193 209 -225 209 -5 0 -11 3 -13 8 -5 12 -93 52 -115 52 -10 0
-23 4 -28 9 -21 19 -249 45 -281 32z m220 -106 c15 -8 36 -15 44 -15 44 0 170
-78 243 -150 136 -134 185 -247 196 -454 3 -56 1 -92 -6 -99 -6 -6 -11 -27
-11 -47 0 -19 -7 -48 -15 -64 -8 -15 -15 -36 -15 -46 0 -10 -7 -23 -15 -30 -8
-7 -15 -18 -15 -25 0 -6 -8 -21 -17 -33 -10 -11 -25 -30 -33 -43 -29 -44 -93
-109 -129 -131 -20 -12 -42 -28 -49 -35 -7 -7 -20 -13 -28 -13 -8 0 -14 -4
-14 -10 0 -5 -12 -13 -27 -16 -16 -4 -37 -13 -48 -20 -11 -8 -34 -14 -52 -14
-17 0 -35 -4 -38 -10 -4 -6 -57 -10 -125 -10 -68 0 -121 4 -125 10 -3 6 -21
10 -38 10 -57 0 -218 90 -287 160 -60 60 -145 189 -156 237 -4 16 -12 34 -18
42 -15 19 -15 343 0 362 6 8 14 31 18 52 4 20 11 37 16 37 6 0 10 5 10 11 0 6
20 42 45 79 41 61 68 90 148 157 37 31 130 80 168 88 16 4 42 13 57 21 39 20
276 19 316 -1z"/>
<path d="M2017 3141 c-15 -22 -45 -53 -67 -67 -37 -25 -44 -44 -17 -44 13 0
57 -41 88 -83 l21 -27 25 37 c29 42 48 59 81 73 23 10 22 11 -27 50 -28 23
-57 55 -64 72 l-13 31 -27 -42z"/>
<path d="M5114 2553 c-15 -21 -32 -39 -36 -41 -4 -2 -19 -13 -33 -24 l-26 -21
38 -23 c22 -12 45 -35 53 -49 8 -15 22 -31 32 -36 15 -8 20 -5 27 13 10 26 62
75 92 86 17 7 13 12 -31 45 -28 21 -55 49 -60 63 -13 33 -23 30 -56 -13z"/>
</g>
</svg>
